<svg data-v-423bf9ae="" xmlns="http://www.w3.org/2000/svg" viewBox="0 0 262 91" class="iconLeft"><!----><!----><!----><g data-v-423bf9ae="" id="a4aac387-9e8a-4f09-bdf9-f57e6a5601b3" fill="#362120" transform="matrix(6.578947450975964,0,0,6.578947450975964,107.9878433341382,-17.30261715214668)"><path d="M7.74 14.03L7.74 14.03L7.74 14.03Q6.80 14.03 6.27 13.73L6.27 13.73L6.27 13.73Q5.69 13.41 5.65 12.82L5.65 12.82L5.58 12.17L5.58 12.17Q6.21 12.02 6.64 11.40L6.64 11.40L6.64 11.40Q6.76 11.22 6.76 11.09L6.76 11.09L6.76 11.09Q6.76 10.91 6.58 10.91L6.58 10.91L6.56 10.91L6.56 10.91Q6.56 10.92 6.54 10.92L6.54 10.92L6.54 10.92Q6.06 11.92 4.98 11.92L4.98 11.92L4.98 11.92Q4.44 11.92 4.05 11.68L4.05 11.68L4.05 11.68Q3.66 11.44 3.34 10.86L3.34 10.86L3.30 10.86L3.30 10.86Q3.12 10.86 3.12 11.01L3.12 11.01L3.12 11.01Q3.12 11.12 3.20 11.26L3.20 11.26L3.20 11.26Q3.47 11.72 3.88 11.98L3.88 11.98L3.88 11.98Q4.20 12.20 4.56 12.24L4.56 12.24L4.50 13.53L4.50 13.53Q4.09 13.79 3.64 13.91L3.64 13.91L3.64 13.91Q3.19 14.03 2.35 14.03L2.35 14.03L2.35 14.03Q1.51 14.03 0.85 13.71L0.85 13.71L0.85 13.71Q0.05 13.30 0.05 12.58L0.05 12.58L0.05 12.58Q0.05 11.69 0.40 8.16L0.40 8.16L0.40 8.16Q0.59 6.32 0.71 5.59L0.71 5.59L0.71 5.59Q1.42 4.96 2.79 4.96L2.79 4.96L2.79 4.96Q3.79 4.96 4.44 5.33L4.44 5.33L4.82 6.59L4.58 7.59L4.58 7.59Q4.55 7.70 4.55 7.79L4.55 7.79L4.55 7.79Q4.55 8.03 4.83 8.04L4.83 8.04L5.48 5.34L5.48 5.34Q5.76 5.19 6.21 5.08L6.21 5.08L6.21 5.08Q6.66 4.96 7.19 4.96L7.19 4.96L7.19 4.96Q8.19 4.96 8.67 5.30L8.67 5.30L8.67 5.30Q9.15 5.64 9.24 6.44L9.24 6.44L9.24 6.44Q9.26 6.59 9.30 6.94L9.30 6.94L9.30 6.94Q9.93 12.28 9.93 13.23L9.93 13.23L9.93 13.23Q9.17 14.03 7.74 14.03ZM14.83 9.74L14.83 9.74L14.83 9.74Q14.83 10.23 14.69 10.61L14.69 10.61L14.69 10.61Q14.55 11.00 14.26 11.41L14.26 11.41L10.61 11.41L10.61 11.41Q10.04 10.63 10.04 9.74L10.04 9.74L10.04 9.74Q10.04 9.25 10.19 8.85L10.19 8.85L10.19 8.85Q10.33 8.45 10.61 8.03L10.61 8.03L14.26 8.03L14.26 8.03Q14.56 8.47 14.70 8.86L14.70 8.86L14.70 8.86Q14.83 9.25 14.83 9.74ZM19.26 9.79L19.26 9.19L19.26 9.19Q19.26 8.51 19.20 8.25L19.20 8.25L19.20 8.25Q19.13 8.00 18.97 8.00L18.97 8.00L18.97 8.00Q18.87 8.00 18.79 8.07L18.79 8.07L18.79 8.07Q18.80 8.19 18.83 8.39L18.83 8.39L18.83 8.39Q18.85 8.60 18.85 9.27L18.85 9.27L18.85 9.71L18.85 9.71Q18.85 10.18 18.83 10.39L18.83 10.39L18.83 10.39Q18.81 10.60 18.80 10.75L18.80 10.75L18.80 10.75Q18.79 10.83 18.79 10.92L18.79 10.92L18.79 10.92Q18.87 10.99 18.97 10.99L18.97 10.99L18.97 10.99Q19.13 10.99 19.20 10.73L19.20 10.73L19.20 10.73Q19.26 10.47 19.26 9.79L19.26 9.79ZM18.44 13.92L16.71 13.92L16.71 13.92Q15.95 13.92 15.53 13.51L15.53 13.51L15.53 13.51Q15.12 13.11 15.12 12.30L15.12 12.30L15.12 6.15L15.12 6.15Q15.12 5.63 16.16 5.27L16.16 5.27L16.16 5.27Q17.21 4.91 18.49 4.91L18.49 4.91L18.49 4.91Q20.75 4.91 22.03 6.00L22.03 6.00L22.03 6.00Q23.39 7.18 23.39 9.51L23.39 9.51L23.39 9.51Q23.39 11.61 22.07 12.76L22.07 12.76L22.07 12.76Q20.75 13.92 18.44 13.92L18.44 13.92Z"></path></g><defs data-v-423bf9ae=""><linearGradient data-v-423bf9ae="" gradientTransform="rotate(25)" id="8355b6a3-5f1b-49d5-8acf-d6634760bd8a" x1="0%" y1="0%" x2="100%" y2="0%"><stop data-v-423bf9ae="" offset="0%" style="stop-color: rgb(90, 14, 29); stop-opacity: 1;"></stop><stop data-v-423bf9ae="" offset="100%" style="stop-color: rgb(179, 153, 132); stop-opacity: 1;"></stop></linearGradient></defs><g data-v-423bf9ae="" id="4b61d8d4-d8b6-4f1f-9e6c-08140871d707" transform="matrix(1.0000001695421008,0,0,1.0000001695421008,-5.158398517441839,-4.00001604156634)" stroke="none" fill="url(#8355b6a3-5f1b-49d5-8acf-d6634760bd8a)"><path d="M90.41 32.981c-.087-15.57-12.78-28.21-28.37-28.21H37.904c-10.963 0-20.472 6.263-25.193 15.388V6.477a1.86 1.86 0 0 0-3.72 0v33.038L5.826 77.509a3.72 3.72 0 0 0 2.281 3.745l31.484 13.078c.452.189.938.285 1.427.285h17.907c.49 0 .976-.096 1.428-.285l31.484-13.078a3.72 3.72 0 0 0 2.28-3.745L90.41 32.981zM57.076 54.096a1.858 1.858 0 0 0-.799 1.528v31.551h-12.61V55.624a1.86 1.86 0 0 0-.799-1.528c-.495-.345-12.155-8.302-26.914-8.528l.2-2.401c4.056-3.05 16.378-6.303 33.818-6.303 17.439 0 29.763 3.253 33.818 6.304l.2 2.4c-14.759.226-26.419 8.183-26.914 8.528zm-40.1-20.955c0-11.54 9.389-20.928 20.928-20.928h24.135c11.541 0 20.928 9.389 20.928 20.928 0 .103.004.206.013.309l.438 5.259c-7.191-3.671-20.368-5.567-33.447-5.567-13.078 0-26.255 1.895-33.447 5.566l.438-5.259c.009-.102.014-.205.014-.308zm-3.509 42.282l2.178-26.146c11.623.103 21.492 5.628 24.301 7.362v29.782L13.467 75.423zm46.53 10.998V56.637c2.803-1.734 12.645-7.257 24.301-7.36l2.178 26.146-26.479 10.998z"></path><path d="M69.08 31.593a1.86 1.86 0 0 0 1.86-1.86v-5.427a1.86 1.86 0 1 0-3.72 0v5.427a1.858 1.858 0 0 0 1.86 1.86zM75.746 33.453a1.86 1.86 0 0 0 1.86-1.86v-5.427a1.86 1.86 0 1 0-3.72 0v5.427a1.858 1.858 0 0 0 1.86 1.86z"></path></g><!----></svg>