<svg data-v-423bf9ae="" xmlns="http://www.w3.org/2000/svg" viewBox="0 0 445 90" class="iconLeft"><!----><!----><!----><g data-v-423bf9ae="" id="d87a8e58-abce-48c3-a348-6d5b27513dd6" fill="#000000" transform="matrix(5.928853821986509,0,0,5.928853821986509,105.98283907045197,0.47430952235332313)"><path d="M4.24 2.91C2.62 2.91 1.51 3.67 1.51 4.66C1.51 5.32 2.00 5.75 2.52 5.75C2.97 5.75 3.46 5.46 3.46 4.84C3.46 4.35 3.11 4.05 2.72 4.05C2.35 4.05 2.14 4.26 2.06 4.48C2.03 4.55 1.99 4.59 1.92 4.59C1.83 4.59 1.79 4.54 1.79 4.47C1.79 4.30 1.95 3.95 2.24 3.72C2.70 3.36 3.40 3.19 4.19 3.19C5.29 3.19 6.20 3.74 6.20 5.64C6.20 7.27 5.64 8.11 4.02 8.11L3.21 8.11L3.21 6.29C3.21 6.29 2.98 6.40 2.65 6.40C2.38 6.40 2.04 6.33 1.75 6.12L1.75 12.07L0.73 12.07L0.73 12.29L4.37 12.29L4.37 12.07L3.21 12.07L3.21 8.33L4.47 8.33C6.57 8.33 7.77 7.64 7.77 5.54C7.77 3.72 6.31 2.91 4.24 2.91ZM11.44 5.57C10.32 5.57 9.18 6.03 9.18 7.15C9.18 7.71 9.59 8.15 10.15 8.15C10.57 8.15 10.93 7.83 10.93 7.41C10.93 7 10.68 6.65 10.26 6.65C9.95 6.65 9.74 6.82 9.70 7.01C9.69 7.10 9.65 7.14 9.58 7.14C9.52 7.14 9.45 7.10 9.45 7.01C9.45 6.59 9.87 5.85 11.21 5.85C12.59 5.85 12.94 6.71 12.94 8.08L12.94 8.76C11.07 8.72 8.68 8.89 8.68 10.75C8.68 11.98 9.74 12.57 10.98 12.57C12.00 12.57 12.80 12.01 13.05 11.02L13.13 11.02C13.13 11.76 13.22 12.57 13.96 12.57C14.97 12.57 15.27 11.41 15.37 10.40L15.12 10.37C15.02 11.28 14.78 11.98 14.43 11.98C14.24 11.98 14.18 11.73 14.18 11.41L14.18 8.93C14.18 6.61 13.76 5.57 11.44 5.57ZM12.94 9.95C12.94 11.09 12.45 12.18 11.31 12.18C10.44 12.18 10.04 11.56 10.04 10.70C10.04 9.17 11.42 8.97 12.94 9.02ZM22.86 12.29L22.86 12.08L21.94 12.08L21.94 2.45C21.28 2.59 20.66 2.63 19.99 2.63L19.70 2.63L19.70 2.84L20.69 2.84L20.69 6.72L20.61 6.72C20.26 5.98 19.59 5.57 18.77 5.57C16.90 5.57 16.20 7.24 16.20 9.11C16.20 10.91 16.88 12.57 18.68 12.57C19.63 12.57 20.29 11.93 20.61 11.02L20.69 11.02L20.69 12.29ZM20.72 9.09C20.72 10.26 20.19 12.18 19.01 12.18C17.70 12.18 17.56 10.43 17.56 9.11C17.56 7.77 17.64 5.96 18.98 5.96C20.27 5.96 20.72 7.29 20.72 8.58ZM26.70 5.57C25.58 5.57 24.44 6.03 24.44 7.15C24.44 7.71 24.85 8.15 25.41 8.15C25.83 8.15 26.19 7.83 26.19 7.41C26.19 7 25.94 6.65 25.52 6.65C25.21 6.65 25.00 6.82 24.96 7.01C24.95 7.10 24.91 7.14 24.84 7.14C24.78 7.14 24.71 7.10 24.71 7.01C24.71 6.59 25.13 5.85 26.47 5.85C27.85 5.85 28.20 6.71 28.20 8.08L28.20 8.76C26.33 8.72 23.94 8.89 23.94 10.75C23.94 11.98 25.00 12.57 26.24 12.57C27.26 12.57 28.06 12.01 28.31 11.02L28.39 11.02C28.39 11.76 28.48 12.57 29.22 12.57C30.23 12.57 30.53 11.41 30.63 10.40L30.38 10.37C30.28 11.28 30.04 11.98 29.69 11.98C29.50 11.98 29.44 11.73 29.44 11.41L29.44 8.93C29.44 6.61 29.02 5.57 26.70 5.57ZM28.20 9.95C28.20 11.09 27.71 12.18 26.57 12.18C25.70 12.18 25.30 11.56 25.30 10.70C25.30 9.17 26.68 8.97 28.20 9.02ZM39.00 11.94C37.66 11.94 37.23 8.85 37.23 6.52L37.23 5.67C36.55 5.81 35.94 5.85 35.25 5.85L34.96 5.85L34.96 6.06L35.95 6.06L35.95 6.85C35.95 8.12 36.08 9.24 36.33 10.15C35.97 11.17 35.41 11.94 34.85 11.94C33.50 11.94 33.07 8.85 33.07 6.52L33.07 5.67C32.40 5.81 31.78 5.85 31.09 5.85L30.80 5.85L30.80 6.06L31.79 6.06L31.79 6.85C31.79 10.26 32.77 12.57 34.37 12.57C35.22 12.57 35.98 11.72 36.46 10.53C36.90 11.82 37.62 12.57 38.53 12.57C40.00 12.57 41.16 10.07 41.16 7.76C41.16 6.59 40.85 5.57 39.68 5.57C39.13 5.57 38.67 5.95 38.67 6.50C38.67 6.93 38.99 7.27 39.44 7.27C39.86 7.27 40.17 7.01 40.18 6.61C40.18 6.29 40.01 6.09 39.80 6.05C39.72 6.03 39.68 5.99 39.68 5.92C39.68 5.84 39.73 5.80 39.82 5.80C40.68 5.80 40.91 6.83 40.91 7.81C40.91 9.74 39.96 11.94 39.00 11.94ZM45.23 5.57C44.11 5.57 42.98 6.03 42.98 7.15C42.98 7.71 43.39 8.15 43.95 8.15C44.37 8.15 44.73 7.83 44.73 7.41C44.73 7 44.48 6.65 44.06 6.65C43.75 6.65 43.54 6.82 43.50 7.01C43.48 7.10 43.44 7.14 43.37 7.14C43.32 7.14 43.25 7.10 43.25 7.01C43.25 6.59 43.67 5.85 45.01 5.85C46.38 5.85 46.73 6.71 46.73 8.08L46.73 8.76C44.87 8.72 42.48 8.89 42.48 10.75C42.48 11.98 43.54 12.57 44.77 12.57C45.79 12.57 46.59 12.01 46.84 11.02L46.93 11.02C46.93 11.76 47.01 12.57 47.75 12.57C48.76 12.57 49.07 11.41 49.17 10.40L48.92 10.37C48.82 11.28 48.58 11.98 48.23 11.98C48.03 11.98 47.98 11.73 47.98 11.41L47.98 8.93C47.98 6.61 47.56 5.57 45.23 5.57ZM46.73 9.95C46.73 11.09 46.24 12.18 45.11 12.18C44.24 12.18 43.83 11.56 43.83 10.70C43.83 9.17 45.22 8.97 46.73 9.02ZM52.86 12.08L51.94 12.08L51.94 9.55C51.94 7.95 52.26 5.96 53.86 5.96C54.99 5.96 54.99 7.50 54.99 8.64L54.99 12.08L54.07 12.08L54.07 12.29L57.16 12.29L57.16 12.08L56.24 12.08L56.24 8.44C56.24 6.71 55.86 5.57 54.12 5.57C53.19 5.57 52.36 6.17 52.05 7.07L51.97 7.07L51.97 5.67C51.30 5.81 50.68 5.85 49.99 5.85L49.70 5.85L49.70 6.06L50.69 6.06L50.69 12.08L49.77 12.08L49.77 12.29L52.86 12.29Z"></path></g><defs data-v-423bf9ae=""><linearGradient data-v-423bf9ae="" gradientTransform="rotate(25)" id="9d5f5484-6385-4b01-aa80-35a5fe6c18fd" x1="0%" y1="0%" x2="100%" y2="0%"><stop data-v-423bf9ae="" offset="0%" style="stop-color: rgb(112, 36, 61); stop-opacity: 1;"></stop><stop data-v-423bf9ae="" offset="100%" style="stop-color: rgb(193, 87, 103); stop-opacity: 1;"></stop></linearGradient></defs><g data-v-423bf9ae="" id="853d3c02-75e3-45af-a1b8-bf5f4ef56e8f" transform="matrix(1.4156564803790868,0,0,1.4156564803790868,-28.72071188249167,-25.540530756779148)" stroke="none" fill="url(#9d5f5484-6385-4b01-aa80-35a5fe6c18fd)"><switch><g><path d="M82.875 18.339a.678.678 0 0 0-.949-.008L38.952 59.904l-.005-.029a.664.664 0 0 0-.465-.522.658.658 0 0 0-.675.166l-4.05 4.047c0 .002-.006.002-.006.002-.353.359-.537.802-.638 1.263-.084-.034-.153-.1-.242-.1a.666.666 0 0 0-.475.198l-1.382 1.387-.006.002-1.387 1.387a.678.678 0 0 0-.2.477c0 .098.069.174.11.261-.475.1-.933.282-1.286.635l-6.871 6.869a2.616 2.616 0 0 0 0 3.702l.073.076c.006.003 0 .003.006.005 0 .003 0 0 .005.003l1.218 1.218c.491.493 1.15.765 1.852.765s1.36-.271 1.852-.765l6.871-6.871c.326-.327.506-.728.627-1.145l1.176 1.176a.675.675 0 0 0 .955 0l.326-.327a1.655 1.655 0 0 0 1.762-.366c.322-.316.496-.736.496-1.182a1.6 1.6 0 0 0-.121-.588l.332-.33c.128-.123.196-.295.196-.474s-.068-.351-.195-.478l-1.182-1.178c.422-.116.822-.298 1.139-.615l1.256-1.257a.667.667 0 0 0 .185-.599l-.105-.583L84.21 20.609a.675.675 0 0 0-.006-.947l-1.329-1.323zm-60.84 59.856a1.228 1.228 0 0 1-.048-.535l.29.292-.242.243zm8.063-8.529c.138 0 .264.037.391.077l-.279.279-.316-.316c.067-.012.135-.04.204-.04zm-1.339.812l.495.499-.442.44-.496-.499.443-.44zm-1.398 1.395l.496.498-.443.443-.496-.499.443-.442zm-1.397 1.397l.495.498-.438.44-.496-.501.439-.437zm-1.393 1.392l.496.501-.443.443-.495-.501.442-.443zm-1.397 1.398l.496.501-.438.438-.502-.499.444-.44zm.459 3.939l-.749-.744.349-.348 1.424 1.426c-.37.038-.755-.062-1.024-.334zm2.193-.404l-1.64-1.643.438-.438 1.64 1.643-.438.438zm1.393-1.392l-1.641-1.643.443-.443 1.641 1.643-.443.443zm1.397-1.397l-1.64-1.643.438-.44 1.645 1.643-.443.44zm1.398-1.395l-1.646-1.643.443-.443 1.646 1.643-.443.443zm1.397-1.397l-1.646-1.643.443-.44 1.64 1.643-.437.44zm-.248-3.038l.386-.388.748.746c.301.303.396.715.327 1.107l-1.461-1.465zm3.091.406l-1.002-1.002v-.002l-1.298-1.297-.005-.002-.896-.894.432-.432 3.201 3.198-.432.431zm-1.809-4.588l.427-.432 3.2 3.198-.432.433-3.195-3.199zm4.703 4.271c0 .003-.005.003-.005.003v.002l-1.397 1.397-.217.214-.332-.335.923-.92v-.005l.913-.912.337.335-.222.221zm.66-3.445c-.47.469-1.302.453-1.776-.021l-1.303-1.305c-.49-.49-.502-1.287-.016-1.771a1.21 1.21 0 0 1 .864-.354c.349 0 .67.134.912.377l1.298 1.297c.49.495.5 1.294.021 1.777zm-.365-4.03c-.326-.327-.743-.506-1.181-.62l1.587-1.587.591 3.204-.997-.997zm2.353.913l-.548-3.003L82.39 19.763l.385.385-42.979 44.355z"></path></g></switch></g><!----></svg>